# xmcd
#
# Track frame offsets:
#	150
#	14225
#	29450
#	44375
#	58075
#	71050
#	84325
#	96050
#	110425
#	123825
#
# Disc length: 1901 seconds
#
# Revision: 1
# Processed by: cddbd v1.5PL3 Copyright (c) Steve Scherf et al.
# Submitted via: EasyCDDAExtractor 6.5.0.3
#
DISCID=85076b0a
DTITLE=Murielle Leclerc - Je veux T'aimer
DYEAR=2002
DGENRE=country
TTITLE0=Guitare Cadillac
TTITLE1=J'ai dit non
TTITLE2=Je veux t'aimer
TTITLE3=Mon vrai sourire
TTITLE4=T'envoler
TTITLE5=Loin de nous
TTITLE6=C'etait mon ombre sur le mur
TTITLE7=Personne ne veut mourir
TTITLE8=Quand le soleil brillera
TTITLE9=Medley
EXTD=
EXTT0=
EXTT1=
EXTT2=
EXTT3=
EXTT4=
EXTT5=
EXTT6=
EXTT7=
EXTT8=
EXTT9=
PLAYORDER=
